<svg width="68" height="44" viewBox="0 0 68 44" fill="none" xmlns="http://www.w3.org/2000/svg">
<path d="M61.8114 19.8739C61.5804 19.8739 61.3807 19.8849 61.2003 19.8999C61.2181 19.6798 61.229 19.4597 61.2345 19.2368L61.2823 19.1151C61.8415 17.6933 62.4745 16.0827 62.4745 14.3546C62.4745 7.04423 56.6831 1.73681 48.7028 1.73681C40.7731 1.73681 35.0309 7.04423 35.0309 14.3546C35.0309 16.0991 35.5888 17.711 36.1725 19.2163C36.1725 19.4433 36.1889 19.6675 36.2067 19.8917C36.0509 19.8808 35.8813 19.8739 35.694 19.8739C33.553 19.8739 29.5868 20.7599 29.8534 27.3825L29.8917 27.3894C30.3921 27.4317 30.8597 27.4522 31.2985 27.4522C35.2634 27.4522 36.7673 25.7952 37.2677 24.0534C38.0101 25.697 39.0969 27.162 40.4546 28.3491C38.0296 29.8869 36.0006 31.9739 34.5319 34.4413C34.4907 34.4787 34.4532 34.5199 34.4198 34.5644C34.3986 34.6082 34.3817 34.654 34.3692 34.7011C33.7507 35.8194 33.2556 37.0017 32.8927 38.2271C32.5299 37.0064 32.0357 35.8288 31.4188 34.7147C31.406 34.6636 31.3886 34.6137 31.3669 34.5657C31.3313 34.516 31.2905 34.4701 31.2452 34.429C29.7584 31.946 27.7038 29.8511 25.2501 28.3163C27.7472 26.1493 29.2856 23.0823 29.5294 19.7851C29.5294 19.7755 29.5444 19.77 29.5471 19.7591C31.9083 12.7864 31.3505 8.26103 31.3245 8.07099C31.3245 8.05595 31.3245 8.04091 31.3245 8.02587C30.8952 5.7372 29.3229 3.82451 26.7786 2.49423C22.0044 0.00185221 15.327 0.134469 11.8763 1.68759C7.30985 3.73838 4.63016 1.77099 4.52078 1.68759C4.39945 1.59284 4.25474 1.53268 4.102 1.5135C3.94925 1.49432 3.79416 1.51682 3.65317 1.57863C3.51217 1.64043 3.39053 1.73924 3.30114 1.86457C3.21174 1.9899 3.15792 2.13709 3.14539 2.29052L2.76395 7.05517C2.73524 7.28623 2.09129 12.7892 4.45106 19.7563C4.46746 19.8069 4.51258 19.8384 4.53856 19.8849C4.80749 23.1403 6.33829 26.1617 8.80418 28.304C6.3505 29.8466 4.2985 31.9501 2.81727 34.4413C2.7745 34.4784 2.73599 34.5201 2.70242 34.5657C2.68212 34.6098 2.66565 34.6555 2.6532 34.7024C1.46102 36.8312 0.591486 39.3905 0.338557 42.5145C0.329384 42.6262 0.342302 42.7386 0.376572 42.8453C0.410843 42.952 0.465794 43.0509 0.538288 43.1363C0.610783 43.2218 0.699399 43.2921 0.799077 43.3433C0.898754 43.3945 1.00754 43.4255 1.11922 43.4347H1.18758C1.4017 43.4344 1.60791 43.3537 1.7654 43.2086C1.92288 43.0636 2.02016 42.8646 2.03797 42.6513C2.20312 40.415 2.79628 38.2312 3.78524 36.2187L7.58465 38.5046V42.5884C7.58465 42.8146 7.67453 43.0316 7.83452 43.1916C7.99452 43.3516 8.21151 43.4415 8.43777 43.4415C8.66404 43.4415 8.88103 43.3516 9.04103 43.1916C9.20102 43.0316 9.2909 42.8146 9.2909 42.5884V38.0192C9.2913 37.8723 9.25376 37.7278 9.1819 37.5996C9.11004 37.4715 9.00631 37.3641 8.88074 37.2878L4.61785 34.727C6.0376 32.5293 7.95336 30.6955 10.211 29.3731C12.231 30.6941 14.5909 31.4004 17.0045 31.4062C19.418 31.412 21.7814 30.7172 23.8077 29.406C26.0646 30.7302 27.9856 32.5572 29.4214 34.7448L25.1954 37.2878C25.0697 37.364 24.9659 37.4714 24.8941 37.5995C24.8222 37.7277 24.7847 37.8723 24.7852 38.0192V42.5843C24.7941 42.8045 24.8877 43.0127 25.0466 43.1653C25.2055 43.318 25.4173 43.4033 25.6377 43.4033C25.858 43.4033 26.0698 43.318 26.2287 43.1653C26.3876 43.0127 26.4813 42.8045 26.4901 42.5843V38.5005L30.2677 36.2269C31.2698 38.2331 31.8698 40.416 32.0341 42.6526C32.0469 42.7953 32.0962 42.9323 32.1771 43.0506C32.258 43.1688 32.3678 43.2643 32.4962 43.328L32.5249 43.3444C32.5973 43.3763 32.6736 43.3984 32.7518 43.4101C32.7819 43.4101 32.8065 43.4319 32.8366 43.4347H32.9063H32.9323H32.9514C32.9733 43.4347 32.9911 43.4196 33.0116 43.4169C33.2047 43.3944 33.3841 43.3062 33.5198 43.167C33.6555 43.0279 33.7392 42.8462 33.7567 42.6526C33.9227 40.416 34.5159 38.232 35.504 36.2187L39.3048 38.506V42.5897C39.3048 42.816 39.3947 43.033 39.5546 43.193C39.7146 43.353 39.9316 43.4429 40.1579 43.4429C40.3842 43.4429 40.6012 43.353 40.7611 43.193C40.9211 43.033 41.011 42.816 41.011 42.5897V38.0192C41.0112 37.8724 40.9735 37.7279 40.9017 37.5998C40.8298 37.4717 40.7262 37.3643 40.6009 37.2878L36.3434 34.7257C37.7454 32.5527 39.6335 30.7357 41.8587 29.4183C43.8934 30.754 46.2743 31.4657 48.7083 31.4657C51.1423 31.4657 53.5232 30.754 55.5579 29.4183C57.8034 30.7407 59.7148 32.5618 61.1442 34.7407L56.9182 37.2837C56.7926 37.3599 56.6888 37.4673 56.6169 37.5954C56.545 37.7236 56.5076 37.8682 56.5081 38.0151V42.5802C56.5081 42.8064 56.598 43.0234 56.758 43.1834C56.918 43.3434 57.135 43.4333 57.3612 43.4333C57.5875 43.4333 57.8045 43.3434 57.9645 43.1834C58.1245 43.0234 58.2143 42.8064 58.2143 42.5802V38.5005L61.9919 36.2269C62.9928 38.2335 63.5924 40.4162 63.7569 42.6526C63.775 42.8782 63.882 43.0873 64.0543 43.2339C64.2266 43.3806 64.4501 43.4528 64.6757 43.4347C64.9012 43.4165 65.1103 43.3096 65.257 43.1373C65.4036 42.965 65.4758 42.7415 65.4577 42.5159C65.2061 39.3933 64.3407 36.8394 63.1472 34.7229C63.1341 34.6713 63.1162 34.6209 63.0938 34.5726C63.0582 34.5228 63.0174 34.477 62.9722 34.4358C61.4904 31.9544 59.4414 29.8596 56.9934 28.3231C58.3732 27.1109 59.4712 25.6117 60.2104 23.9304C60.6725 25.7159 62.1573 27.4522 66.2179 27.4522C66.6567 27.4522 67.1243 27.4317 67.6247 27.3894L67.663 27.3825C67.9186 20.7599 63.9524 19.8739 61.8114 19.8739ZM35.2511 24.4007C34.6386 25.2497 33.4067 25.6995 31.5856 25.7433C31.71 24.3679 32.1038 23.3288 32.7614 22.6438C33.6063 21.7647 34.8218 21.5788 35.6913 21.5788H35.7255C35.8444 22.4401 35.8321 23.5968 35.2511 24.4007ZM4.46063 7.23427L4.74227 3.72607C6.2284 4.33173 8.94774 4.87724 12.5776 3.24345C15.6784 1.84619 21.8075 1.82021 25.9884 4.00634C28.0733 5.10009 29.3024 6.54248 29.6429 8.31162C29.6757 8.6083 30.0147 12.1575 28.452 17.577L25.004 12.6552C24.8936 12.4979 24.7335 12.3824 24.5494 12.3273C24.3654 12.2723 24.1681 12.2808 23.9895 12.3517C23.9526 12.3667 20.2981 13.8132 16.9608 13.8392C13.7192 13.8132 10.0538 12.3667 10.0169 12.3517C9.83825 12.2811 9.64108 12.2726 9.45708 12.3277C9.27308 12.3827 9.11294 12.4981 9.00242 12.6552L5.56258 17.5688C3.93836 11.772 4.45106 7.3122 4.46063 7.23427ZM6.22977 19.5882L10.021 14.1727C11.2856 14.6157 14.2169 15.5249 17.0565 15.5468C19.8114 15.5249 22.7221 14.6171 23.9827 14.1727L27.8354 19.6757C27.6256 22.4036 26.391 24.951 24.3798 26.8058C22.3686 28.6607 19.7299 29.6856 16.994 29.6745C14.258 29.6634 11.6277 28.6172 9.6316 26.7461C7.6355 24.875 6.4216 22.3177 6.23387 19.5882H6.22977ZM48.7028 3.44306C55.6946 3.44306 60.7696 8.03271 60.7696 14.3546C60.7696 15.5851 60.3472 16.8155 59.8864 18.0022C56.7419 17.0548 50.863 14.654 49.5764 9.70751C49.5289 9.5257 49.4228 9.36462 49.2745 9.24919C49.1263 9.13377 48.944 9.07045 48.7561 9.06904H48.7083C48.5206 9.07037 48.3385 9.1335 48.1902 9.24865C48.042 9.36381 47.9357 9.52459 47.888 9.70615C46.6069 14.6185 40.702 17.0302 37.537 17.9872C37.1063 16.8155 36.744 15.5892 36.744 14.3546C36.7345 8.03271 41.7671 3.44306 48.7028 3.44306ZM48.7028 29.7628C45.9561 29.7572 43.3138 28.7099 41.3091 26.8322C39.3045 24.9544 38.0869 22.3861 37.902 19.6456C41.3665 18.6257 46.477 16.4669 48.7288 12.1999C50.9751 16.4942 56.0624 18.6462 59.5118 19.6593C59.3232 22.3986 58.1029 24.9645 56.0969 26.8396C54.091 28.7146 51.4486 29.7592 48.7028 29.7628ZM62.2503 24.4007C61.6692 23.5968 61.6583 22.4374 61.7772 21.5788H61.8114C62.6809 21.5788 63.895 21.7647 64.7413 22.6438C65.3989 23.3274 65.7913 24.3679 65.9157 25.7433C64.096 25.6995 62.8628 25.2497 62.2503 24.4007Z" fill="#323336"/>
</svg>
