<svg width="71" height="64" viewBox="0 0 71 64" fill="none" xmlns="http://www.w3.org/2000/svg">
<path d="M40.7637 18.9844V24.4805H40.0664C38.9043 24.4805 37.9609 25.4238 37.9609 26.5723C37.9609 27.7344 38.9043 28.6777 40.0664 28.6777H40.7637V45.3027H40.0664C38.9043 45.3027 37.9609 46.2461 37.9609 47.4082C37.9609 48.5703 38.9043 49.5 40.0664 49.5H40.7637V54.9961C40.7637 55.4062 41.0918 55.748 41.5156 55.748H65.8789C66.2891 55.748 66.6309 55.4199 66.6309 54.9961V18.9844C66.6309 18.5742 66.3027 18.2324 65.8789 18.2324H41.5156C41.1055 18.2461 40.7637 18.5742 40.7637 18.9844ZM40.0664 27.1875C39.7383 27.1875 39.4648 26.9141 39.4648 26.5859C39.4648 26.2578 39.7383 25.9844 40.0664 25.9844H42.9648C43.293 25.9844 43.5664 26.2578 43.5664 26.5859C43.5664 26.9141 43.293 27.1875 42.9648 27.1875H40.0664ZM40.0664 47.9961C39.7383 47.9961 39.4648 47.7227 39.4648 47.3945C39.4648 47.0664 39.7383 46.793 40.0664 46.793H42.9648C43.293 46.793 43.5664 47.0664 43.5664 47.3945C43.5664 47.7227 43.293 47.9961 42.9648 47.9961H40.0664ZM42.2676 19.7363H65.127V54.2441H42.2676V49.5H42.9648C44.127 49.5 45.0566 48.5566 45.0566 47.4082C45.0566 46.2461 44.1133 45.3027 42.9648 45.3027H42.2676V28.6777H42.9648C44.127 28.6777 45.0566 27.7344 45.0566 26.5723C45.0566 25.4102 44.1133 24.4805 42.9648 24.4805H42.2676V19.7363ZM36.252 21.5137H5.12109C4.71094 21.5137 4.36914 21.8555 4.36914 22.2656V35.1445C4.36914 35.5547 4.69727 35.8965 5.12109 35.8965H36.2383C36.6484 35.8965 36.9902 35.5684 36.9902 35.1445V22.2656C36.9902 21.8418 36.6621 21.5137 36.252 21.5137ZM35.5 34.3926H5.87305V23.0039H35.5V34.3926ZM69.6113 14.5H62.0234V10.3574C62.0234 9.86523 62.4199 9.46875 62.9121 9.46875C63.8008 9.45508 65.9062 9.46875 66.7539 9.55078C67.0547 9.55078 67.3418 9.35938 67.4512 9.07227L69.9668 2.61914C70.1719 2.1543 69.7754 1.58008 69.2695 1.59375H60.4238C56.9648 1.59375 54.1484 4.41016 54.1484 7.86914V14.5H26.1621V13.2285H29.7031C30.1133 13.2285 30.4551 12.8867 30.4551 12.4766V5.57227C30.4551 5.16211 30.127 4.82031 29.7031 4.82031H17.2344V1.0332C17.2344 0.623047 16.9062 0.28125 16.4824 0.28125H8.2793C7.86914 0.28125 7.52734 0.623047 7.52734 1.0332V4.83398H5.75C5.33984 4.83398 4.99805 5.17578 4.99805 5.58594V12.4902C4.99805 12.9004 5.32617 13.2422 5.75 13.2422H9.29102V14.5137H1.38867C0.978516 14.5137 0.636719 14.8555 0.636719 15.2656V58.7559C0.636719 59.166 0.964844 59.5078 1.38867 59.5078H4.73828V62.9941C4.73828 63.4043 5.06641 63.7461 5.49023 63.7461H65.5234C65.9336 63.7461 66.2754 63.418 66.2754 62.9941V59.4805H69.625C70.0352 59.4805 70.377 59.1523 70.377 58.7285V15.252C70.3633 14.8281 70.0352 14.5 69.6113 14.5ZM66.1797 3.09766H68.1895L66.2617 8.01953H66.1797V3.09766ZM55.6523 7.86914C55.6523 5.23047 57.7988 3.08398 60.4375 3.08398H64.6895V7.95117H62.9121C61.5996 7.95117 60.5332 9.01758 60.5332 10.3301V14.5H55.666V7.86914H55.6523ZM9.03125 1.77148H15.7305V4.82031H9.03125V1.77148ZM6.50195 11.7246V6.32422H28.9512V11.7246H6.50195ZM24.6719 13.2285V14.5H21.8555V13.2285H24.6719ZM20.3516 13.2285V14.5H15.1152V13.2285H20.3516ZM13.6113 13.2285V14.5H10.7949V13.2285H13.6113ZM64.7715 62.2285H6.22852V59.4941H64.7578V62.2285H64.7715ZM68.873 57.9902H2.12695V15.9902C12.7227 15.9902 59.248 16.0039 68.8594 15.9902V57.9902H68.873ZM36.252 38.084H5.12109C4.71094 38.084 4.36914 38.4121 4.36914 38.8359V51.7148C4.36914 52.125 4.69727 52.4668 5.12109 52.4668H36.2383C36.6484 52.4668 36.9902 52.1387 36.9902 51.7148V38.8359C36.9902 38.4258 36.6621 38.084 36.252 38.084ZM35.5 50.9766H5.87305V39.5879H35.5V50.9766ZM8.62109 45.6035H32.2734C32.6836 45.6035 33.0254 45.2754 33.0254 44.8516V42.1445C33.0254 41.7344 32.6973 41.3926 32.2734 41.3926H8.62109C8.21094 41.3926 7.86914 41.7207 7.86914 42.1445V44.8516C7.86914 45.2617 8.19727 45.6035 8.62109 45.6035ZM9.35938 42.8965H31.5078V44.1133H9.35938V42.8965ZM55.8164 47.75C56.2812 48.4199 57.3887 47.873 57.1426 47.0938L54.8594 39.2871L58.6055 37.4277C59.0156 37.2363 59.1523 36.6758 58.8789 36.3066L51.5918 26.4355C51.373 26.1484 50.9766 26.0527 50.6621 26.2031C50.334 26.3672 50.1699 26.7363 50.2793 27.0781L52.5625 34.8848L48.8164 36.7441C48.625 36.8398 48.4746 37.0176 48.4199 37.2363C48.3652 37.4551 48.4199 37.6738 48.543 37.8516L55.8164 47.75ZM53.7656 35.9648C54.0938 35.8008 54.2578 35.4316 54.1484 35.0898L52.877 30.7285L57.1289 36.498L53.6152 38.2344C53.2871 38.3984 53.123 38.7676 53.2324 39.1094L54.5039 43.4707L50.252 37.7012L53.7656 35.9648ZM8.62109 29.0059H14.3633C14.7734 29.0059 15.1152 28.6641 15.1152 28.2539V25.5469C15.1152 25.1367 14.7871 24.7949 14.3633 24.7949H8.62109C8.21094 24.7949 7.86914 25.1367 7.86914 25.5469V28.2539C7.86914 28.6777 8.19727 29.0059 8.62109 29.0059ZM9.35938 26.2988H13.6113V27.5156H9.35938V26.2988Z" fill="#323336"/>
</svg>
